<mxfile host="app.diagrams.net" modified="2020-07-28T14:22:20.249Z" agent="5.0 (Macintosh; Intel Mac OS X 10_15_5) AppleWebKit/537.36 (KHTML, like Gecko) Chrome/84.0.4147.89 Safari/537.36" etag="PeFy_gxF_2oukXE-3ERh" version="13.5.4" type="github">
  <diagram id="V88J8R0XYIuLnVM00vHM" name="Page-1">
    <mxGraphModel dx="2856" dy="609" grid="1" gridSize="10" guides="1" tooltips="1" connect="1" arrows="1" fold="1" page="1" pageScale="1" pageWidth="827" pageHeight="1169" math="0" shadow="0">
      <root>
        <mxCell id="0" />
        <mxCell id="1" parent="0" />
        <object label="message_sys&lt;br&gt;&lt;br&gt;&lt;br&gt;&lt;br&gt;&lt;br&gt;&lt;br&gt;&lt;br&gt;&lt;br&gt;&lt;br&gt;&lt;br&gt;&lt;div style=&quot;text-align: justify&quot;&gt;&lt;/div&gt;" id="ErQjQ0ExapCotJ2YWEid-37">
          <mxCell style="rounded=0;whiteSpace=wrap;html=1;" vertex="1" parent="1">
            <mxGeometry x="-839" y="522" width="152" height="150" as="geometry" />
          </mxCell>
        </object>
        <object label="node&lt;br&gt;&lt;br&gt;&lt;br&gt;&lt;br&gt;&lt;br&gt;&lt;br&gt;&lt;br&gt;&lt;br&gt;&lt;br&gt;&lt;br&gt;&lt;div style=&quot;text-align: justify&quot;&gt;&lt;/div&gt;" id="ErQjQ0ExapCotJ2YWEid-19">
          <mxCell style="rounded=0;whiteSpace=wrap;html=1;" vertex="1" parent="1">
            <mxGeometry x="-444" y="340" width="152" height="150" as="geometry" />
          </mxCell>
        </object>
        <mxCell id="ErQjQ0ExapCotJ2YWEid-11" style="edgeStyle=none;rounded=0;orthogonalLoop=1;jettySize=auto;html=1;exitX=0.25;exitY=0;exitDx=0;exitDy=0;entryX=0.333;entryY=1.075;entryDx=0;entryDy=0;entryPerimeter=0;" edge="1" parent="1">
          <mxGeometry relative="1" as="geometry">
            <mxPoint x="-641.04" y="113" as="targetPoint" />
            <mxPoint x="-638.5" y="190" as="sourcePoint" />
          </mxGeometry>
        </mxCell>
        <mxCell id="ErQjQ0ExapCotJ2YWEid-14" style="edgeStyle=none;rounded=0;orthogonalLoop=1;jettySize=auto;html=1;exitX=1;exitY=0.25;exitDx=0;exitDy=0;entryX=0;entryY=0.25;entryDx=0;entryDy=0;" edge="1" parent="1" source="ErQjQ0ExapCotJ2YWEid-3">
          <mxGeometry relative="1" as="geometry">
            <mxPoint x="-413" y="200" as="targetPoint" />
          </mxGeometry>
        </mxCell>
        <mxCell id="ErQjQ0ExapCotJ2YWEid-33" style="edgeStyle=none;rounded=1;orthogonalLoop=1;jettySize=auto;html=1;exitX=1;exitY=0.75;exitDx=0;exitDy=0;entryX=0;entryY=0.75;entryDx=0;entryDy=0;" edge="1" parent="1" source="ErQjQ0ExapCotJ2YWEid-3" target="ErQjQ0ExapCotJ2YWEid-17">
          <mxGeometry relative="1" as="geometry" />
        </mxCell>
        <object label="main" id="ErQjQ0ExapCotJ2YWEid-3">
          <mxCell style="rounded=0;whiteSpace=wrap;html=1;" vertex="1" parent="1">
            <mxGeometry x="-680" y="190" width="90" height="40" as="geometry" />
          </mxCell>
        </object>
        <mxCell id="ErQjQ0ExapCotJ2YWEid-7" value="httpserver" style="shape=parallelogram;perimeter=parallelogramPerimeter;whiteSpace=wrap;html=1;fixedSize=1;" vertex="1" parent="1">
          <mxGeometry x="-700" y="70" width="120" height="40" as="geometry" />
        </mxCell>
        <mxCell id="ErQjQ0ExapCotJ2YWEid-13" value="&lt;font style=&quot;font-size: 10px&quot;&gt;1.&lt;br&gt;启动httpserver&lt;/font&gt;" style="text;html=1;strokeColor=none;fillColor=none;align=center;verticalAlign=middle;whiteSpace=wrap;rounded=0;" vertex="1" parent="1">
          <mxGeometry x="-748" y="140" width="100" height="20" as="geometry" />
        </mxCell>
        <mxCell id="ErQjQ0ExapCotJ2YWEid-15" value="2.&lt;br&gt;NewEtcdBasedSever()" style="text;html=1;strokeColor=none;fillColor=none;align=center;verticalAlign=middle;whiteSpace=wrap;rounded=0;" vertex="1" parent="1">
          <mxGeometry x="-530" y="170" width="40" height="20" as="geometry" />
        </mxCell>
        <mxCell id="ErQjQ0ExapCotJ2YWEid-16" value="node" style="rounded=1;whiteSpace=wrap;html=1;" vertex="1" parent="1">
          <mxGeometry x="-413" y="370" width="90" height="40" as="geometry" />
        </mxCell>
        <mxCell id="ErQjQ0ExapCotJ2YWEid-23" style="edgeStyle=none;rounded=0;orthogonalLoop=1;jettySize=auto;html=1;exitX=0.25;exitY=1;exitDx=0;exitDy=0;entryX=0.363;entryY=0.001;entryDx=0;entryDy=0;entryPerimeter=0;" edge="1" parent="1" source="ErQjQ0ExapCotJ2YWEid-17" target="ErQjQ0ExapCotJ2YWEid-19">
          <mxGeometry relative="1" as="geometry" />
        </mxCell>
        <mxCell id="ErQjQ0ExapCotJ2YWEid-41" style="edgeStyle=none;rounded=1;orthogonalLoop=1;jettySize=auto;html=1;exitX=0.75;exitY=1;exitDx=0;exitDy=0;entryX=0.65;entryY=-0.008;entryDx=0;entryDy=0;entryPerimeter=0;" edge="1" parent="1" source="ErQjQ0ExapCotJ2YWEid-17" target="ErQjQ0ExapCotJ2YWEid-19">
          <mxGeometry relative="1" as="geometry" />
        </mxCell>
        <object label="server" id="ErQjQ0ExapCotJ2YWEid-17">
          <mxCell style="rounded=0;whiteSpace=wrap;html=1;" vertex="1" parent="1">
            <mxGeometry x="-413" y="190" width="90" height="40" as="geometry" />
          </mxCell>
        </object>
        <mxCell id="ErQjQ0ExapCotJ2YWEid-22" style="edgeStyle=none;rounded=0;orthogonalLoop=1;jettySize=auto;html=1;exitX=0.5;exitY=0;exitDx=0;exitDy=0;shape=flexArrow;" edge="1" parent="1" source="ErQjQ0ExapCotJ2YWEid-21" target="ErQjQ0ExapCotJ2YWEid-16">
          <mxGeometry relative="1" as="geometry" />
        </mxCell>
        <mxCell id="ErQjQ0ExapCotJ2YWEid-44" style="edgeStyle=none;rounded=1;orthogonalLoop=1;jettySize=auto;html=1;exitX=0.25;exitY=1;exitDx=0;exitDy=0;entryX=0.5;entryY=0;entryDx=0;entryDy=0;" edge="1" parent="1" source="ErQjQ0ExapCotJ2YWEid-21" target="ErQjQ0ExapCotJ2YWEid-37">
          <mxGeometry relative="1" as="geometry" />
        </mxCell>
        <mxCell id="ErQjQ0ExapCotJ2YWEid-104" style="rounded=1;orthogonalLoop=1;jettySize=auto;html=1;exitX=0.75;exitY=1;exitDx=0;exitDy=0;entryX=1;entryY=0;entryDx=0;entryDy=0;" edge="1" parent="1" source="ErQjQ0ExapCotJ2YWEid-21" target="ErQjQ0ExapCotJ2YWEid-40">
          <mxGeometry relative="1" as="geometry" />
        </mxCell>
        <mxCell id="ErQjQ0ExapCotJ2YWEid-110" style="edgeStyle=none;rounded=1;orthogonalLoop=1;jettySize=auto;html=1;exitX=0.5;exitY=1;exitDx=0;exitDy=0;entryX=0.5;entryY=0;entryDx=0;entryDy=0;" edge="1" parent="1" source="ErQjQ0ExapCotJ2YWEid-21" target="ErQjQ0ExapCotJ2YWEid-57">
          <mxGeometry relative="1" as="geometry" />
        </mxCell>
        <mxCell id="ErQjQ0ExapCotJ2YWEid-21" value="simple_node" style="rounded=1;whiteSpace=wrap;html=1;" vertex="1" parent="1">
          <mxGeometry x="-413" y="440" width="90" height="40" as="geometry" />
        </mxCell>
        <mxCell id="ErQjQ0ExapCotJ2YWEid-32" style="edgeStyle=none;rounded=1;orthogonalLoop=1;jettySize=auto;html=1;exitX=0.5;exitY=0;exitDx=0;exitDy=0;" edge="1" parent="1">
          <mxGeometry relative="1" as="geometry">
            <mxPoint x="-433" y="270" as="sourcePoint" />
            <mxPoint x="-433" y="270" as="targetPoint" />
          </mxGeometry>
        </mxCell>
        <mxCell id="ErQjQ0ExapCotJ2YWEid-34" value="3.&lt;br&gt;server.Serve()" style="text;html=1;strokeColor=none;fillColor=none;align=center;verticalAlign=middle;whiteSpace=wrap;rounded=0;" vertex="1" parent="1">
          <mxGeometry x="-530" y="230" width="40" height="20" as="geometry" />
        </mxCell>
        <mxCell id="ErQjQ0ExapCotJ2YWEid-36" value="3.1&lt;br&gt;NewNode()" style="text;html=1;strokeColor=none;fillColor=none;align=center;verticalAlign=middle;whiteSpace=wrap;rounded=0;" vertex="1" parent="1">
          <mxGeometry x="-453" y="270" width="40" height="20" as="geometry" />
        </mxCell>
        <mxCell id="ErQjQ0ExapCotJ2YWEid-38" value="message_sys" style="rounded=1;whiteSpace=wrap;html=1;" vertex="1" parent="1">
          <mxGeometry x="-808" y="552" width="90" height="40" as="geometry" />
        </mxCell>
        <mxCell id="ErQjQ0ExapCotJ2YWEid-39" style="edgeStyle=none;rounded=0;orthogonalLoop=1;jettySize=auto;html=1;exitX=0.5;exitY=0;exitDx=0;exitDy=0;shape=flexArrow;" edge="1" parent="1" source="ErQjQ0ExapCotJ2YWEid-40" target="ErQjQ0ExapCotJ2YWEid-38">
          <mxGeometry relative="1" as="geometry" />
        </mxCell>
        <mxCell id="ErQjQ0ExapCotJ2YWEid-56" style="edgeStyle=none;rounded=1;orthogonalLoop=1;jettySize=auto;html=1;exitX=0.5;exitY=1;exitDx=0;exitDy=0;" edge="1" parent="1" source="ErQjQ0ExapCotJ2YWEid-40" target="ErQjQ0ExapCotJ2YWEid-52">
          <mxGeometry relative="1" as="geometry" />
        </mxCell>
        <mxCell id="ErQjQ0ExapCotJ2YWEid-67" style="edgeStyle=none;rounded=1;orthogonalLoop=1;jettySize=auto;html=1;exitX=1;exitY=0.5;exitDx=0;exitDy=0;entryX=0;entryY=0;entryDx=15;entryDy=15;entryPerimeter=0;" edge="1" parent="1" source="ErQjQ0ExapCotJ2YWEid-40" target="ErQjQ0ExapCotJ2YWEid-64">
          <mxGeometry relative="1" as="geometry" />
        </mxCell>
        <mxCell id="ErQjQ0ExapCotJ2YWEid-107" style="edgeStyle=orthogonalEdgeStyle;rounded=1;orthogonalLoop=1;jettySize=auto;html=1;exitX=1;exitY=0;exitDx=0;exitDy=0;entryX=-0.001;entryY=0.574;entryDx=0;entryDy=0;entryPerimeter=0;" edge="1" parent="1" source="ErQjQ0ExapCotJ2YWEid-40" target="ErQjQ0ExapCotJ2YWEid-105">
          <mxGeometry relative="1" as="geometry">
            <Array as="points">
              <mxPoint x="-718" y="420" />
              <mxPoint x="-10" y="420" />
              <mxPoint x="-10" y="450" />
            </Array>
          </mxGeometry>
        </mxCell>
        <mxCell id="ErQjQ0ExapCotJ2YWEid-40" value="etcd_based" style="rounded=1;whiteSpace=wrap;html=1;" vertex="1" parent="1">
          <mxGeometry x="-808" y="622" width="90" height="40" as="geometry" />
        </mxCell>
        <mxCell id="ErQjQ0ExapCotJ2YWEid-42" value="3.2&lt;br&gt;node.Serve()" style="text;html=1;strokeColor=none;fillColor=none;align=center;verticalAlign=middle;whiteSpace=wrap;rounded=0;" vertex="1" parent="1">
          <mxGeometry x="-323" y="270" width="40" height="20" as="geometry" />
        </mxCell>
        <mxCell id="ErQjQ0ExapCotJ2YWEid-45" value="3.2.1 &lt;br&gt;节点初始化" style="text;html=1;strokeColor=none;fillColor=none;align=center;verticalAlign=middle;whiteSpace=wrap;rounded=0;" vertex="1" parent="1">
          <mxGeometry x="-648" y="480" width="70" height="20" as="geometry" />
        </mxCell>
        <mxCell id="ErQjQ0ExapCotJ2YWEid-52" value="&lt;div style=&quot;text-align: center&quot;&gt;&lt;span&gt;函数集：&lt;/span&gt;&lt;/div&gt;a.Start():etcd客户端初始化&lt;br&gt;&lt;div&gt;&lt;span&gt;b.CheckCluster():为etcd新建kv集&lt;/span&gt;&lt;/div&gt;&lt;div&gt;c.RegisterNode():将节点状态信息等写入etcd&lt;/div&gt;" style="shape=card;whiteSpace=wrap;html=1;align=left;" vertex="1" parent="1">
          <mxGeometry x="-860" y="772" width="194" height="90" as="geometry" />
        </mxCell>
        <mxCell id="ErQjQ0ExapCotJ2YWEid-55" value="3.2.1.1 &lt;br&gt;按照顺序运行如下函数集" style="text;html=1;strokeColor=none;fillColor=none;align=center;verticalAlign=middle;whiteSpace=wrap;rounded=0;" vertex="1" parent="1">
          <mxGeometry x="-859" y="702" width="90" height="20" as="geometry" />
        </mxCell>
        <object label="task_manager&lt;br&gt;&lt;br&gt;&lt;br&gt;&lt;br&gt;&lt;br&gt;&lt;br&gt;&lt;br&gt;&lt;div style=&quot;text-align: justify&quot;&gt;&lt;/div&gt;" id="ErQjQ0ExapCotJ2YWEid-57">
          <mxCell style="rounded=0;whiteSpace=wrap;html=1;" vertex="1" parent="1">
            <mxGeometry x="-306" y="580" width="230" height="110" as="geometry" />
          </mxCell>
        </object>
        <mxCell id="ErQjQ0ExapCotJ2YWEid-65" style="edgeStyle=none;rounded=1;orthogonalLoop=1;jettySize=auto;html=1;exitX=0;exitY=0.5;exitDx=0;exitDy=0;entryX=1;entryY=0.5;entryDx=0;entryDy=0;" edge="1" parent="1" source="ErQjQ0ExapCotJ2YWEid-58" target="ErQjQ0ExapCotJ2YWEid-40">
          <mxGeometry relative="1" as="geometry" />
        </mxCell>
        <mxCell id="ErQjQ0ExapCotJ2YWEid-91" style="edgeStyle=orthogonalEdgeStyle;curved=1;rounded=1;orthogonalLoop=1;jettySize=auto;html=1;entryX=0;entryY=0;entryDx=0;entryDy=30;entryPerimeter=0;" edge="1" parent="1" target="ErQjQ0ExapCotJ2YWEid-90">
          <mxGeometry relative="1" as="geometry">
            <mxPoint x="14" y="790" as="targetPoint" />
            <mxPoint x="-251" y="669" as="sourcePoint" />
            <Array as="points">
              <mxPoint x="-251" y="730" />
              <mxPoint x="-113" y="730" />
              <mxPoint x="-113" y="785" />
            </Array>
          </mxGeometry>
        </mxCell>
        <mxCell id="ErQjQ0ExapCotJ2YWEid-58" value="task_manager" style="rounded=1;whiteSpace=wrap;html=1;" vertex="1" parent="1">
          <mxGeometry x="-296" y="629" width="90" height="40" as="geometry" />
        </mxCell>
        <mxCell id="ErQjQ0ExapCotJ2YWEid-60" value="task" style="rounded=1;whiteSpace=wrap;html=1;" vertex="1" parent="1">
          <mxGeometry x="-176" y="629" width="90" height="40" as="geometry" />
        </mxCell>
        <mxCell id="ErQjQ0ExapCotJ2YWEid-63" value="3.2.2&amp;nbsp; &lt;br&gt;启动taskManager模块" style="text;html=1;strokeColor=none;fillColor=none;align=center;verticalAlign=middle;whiteSpace=wrap;rounded=0;" vertex="1" parent="1">
          <mxGeometry x="-283" y="538" width="100" height="28" as="geometry" />
        </mxCell>
        <mxCell id="ErQjQ0ExapCotJ2YWEid-70" style="edgeStyle=none;rounded=1;orthogonalLoop=1;jettySize=auto;html=1;exitX=0.5;exitY=1;exitDx=0;exitDy=0;exitPerimeter=0;entryX=0.5;entryY=0;entryDx=0;entryDy=0;entryPerimeter=0;" edge="1" parent="1" source="ErQjQ0ExapCotJ2YWEid-64" target="ErQjQ0ExapCotJ2YWEid-69">
          <mxGeometry relative="1" as="geometry" />
        </mxCell>
        <mxCell id="ErQjQ0ExapCotJ2YWEid-79" style="rounded=1;orthogonalLoop=1;jettySize=auto;html=1;exitX=0.5;exitY=1;exitDx=0;exitDy=0;exitPerimeter=0;entryX=0.5;entryY=0;entryDx=0;entryDy=0;entryPerimeter=0;" edge="1" parent="1" source="ErQjQ0ExapCotJ2YWEid-64" target="ErQjQ0ExapCotJ2YWEid-74">
          <mxGeometry relative="1" as="geometry" />
        </mxCell>
        <mxCell id="ErQjQ0ExapCotJ2YWEid-64" value="&lt;div style=&quot;text-align: center&quot;&gt;&lt;span&gt;函数集：&lt;/span&gt;&lt;/div&gt;a.RegisterTaskMsgHandler():注册一个handler" style="shape=card;whiteSpace=wrap;html=1;align=left;" vertex="1" parent="1">
          <mxGeometry x="-569" y="830" width="194" height="70" as="geometry" />
        </mxCell>
        <mxCell id="ErQjQ0ExapCotJ2YWEid-66" value="3.2.2.1 &lt;br&gt;找到message_sys模块" style="text;html=1;strokeColor=none;fillColor=none;align=center;verticalAlign=middle;whiteSpace=wrap;rounded=0;" vertex="1" parent="1">
          <mxGeometry x="-664.5" y="630" width="100" height="20" as="geometry" />
        </mxCell>
        <mxCell id="ErQjQ0ExapCotJ2YWEid-68" value="3.2.2.2 &lt;br&gt;运行函数集" style="text;html=1;strokeColor=none;fillColor=none;align=center;verticalAlign=middle;whiteSpace=wrap;rounded=0;" vertex="1" parent="1">
          <mxGeometry x="-683.5" y="748" width="70" height="20" as="geometry" />
        </mxCell>
        <mxCell id="ErQjQ0ExapCotJ2YWEid-69" value="" style="strokeWidth=2;html=1;shape=mxgraph.flowchart.direct_data;whiteSpace=wrap;" vertex="1" parent="1">
          <mxGeometry x="-660" y="999" width="73" height="20" as="geometry" />
        </mxCell>
        <mxCell id="ErQjQ0ExapCotJ2YWEid-71" value="3.2.2.2.1&lt;br&gt;创建taskManager的etcd管道consumer" style="text;html=1;strokeColor=none;fillColor=none;align=center;verticalAlign=middle;whiteSpace=wrap;rounded=0;" vertex="1" parent="1">
          <mxGeometry x="-650" y="930" width="120" height="20" as="geometry" />
        </mxCell>
        <mxCell id="ErQjQ0ExapCotJ2YWEid-87" style="edgeStyle=orthogonalEdgeStyle;rounded=1;orthogonalLoop=1;jettySize=auto;html=1;exitX=0.5;exitY=1;exitDx=0;exitDy=0;exitPerimeter=0;entryX=-0.009;entryY=0.509;entryDx=0;entryDy=0;entryPerimeter=0;curved=1;" edge="1" parent="1" source="ErQjQ0ExapCotJ2YWEid-74" target="ErQjQ0ExapCotJ2YWEid-83">
          <mxGeometry relative="1" as="geometry">
            <Array as="points">
              <mxPoint x="-370.5" y="1030" />
              <mxPoint x="-233.5" y="1030" />
              <mxPoint x="-233.5" y="854" />
            </Array>
          </mxGeometry>
        </mxCell>
        <mxCell id="ErQjQ0ExapCotJ2YWEid-74" value="协程&lt;br&gt;&lt;div style=&quot;text-align: left&quot;&gt;&lt;span&gt;a. taskMsgChan.Recv():管道接收数据&lt;/span&gt;&lt;/div&gt;&lt;div style=&quot;text-align: left&quot;&gt;&lt;span&gt;b.taskMsgHandler()&lt;/span&gt;&lt;br&gt;&lt;/div&gt;" style="shape=note;whiteSpace=wrap;html=1;backgroundOutline=1;darkOpacity=0.05;" vertex="1" parent="1">
          <mxGeometry x="-439" y="970" width="213" height="82.5" as="geometry" />
        </mxCell>
        <mxCell id="ErQjQ0ExapCotJ2YWEid-80" value="" style="shape=mxgraph.bpmn.loop;html=1;outlineConnect=0;" vertex="1" parent="1">
          <mxGeometry x="-470" y="1020" width="24" height="24" as="geometry" />
        </mxCell>
        <mxCell id="ErQjQ0ExapCotJ2YWEid-81" value="3.2.2.2.2&lt;br&gt;运行下面协程，并循环执行下列过程" style="text;html=1;strokeColor=none;fillColor=none;align=center;verticalAlign=middle;whiteSpace=wrap;rounded=0;" vertex="1" parent="1">
          <mxGeometry x="-385" y="915" width="120" height="20" as="geometry" />
        </mxCell>
        <mxCell id="ErQjQ0ExapCotJ2YWEid-82" value="" style="endArrow=none;dashed=1;html=1;dashPattern=1 3;strokeWidth=2;entryX=1;entryY=0.5;entryDx=0;entryDy=0;entryPerimeter=0;exitX=0.003;exitY=0.395;exitDx=0;exitDy=0;exitPerimeter=0;" edge="1" parent="1" source="ErQjQ0ExapCotJ2YWEid-74" target="ErQjQ0ExapCotJ2YWEid-69">
          <mxGeometry width="50" height="50" relative="1" as="geometry">
            <mxPoint x="-723.5" y="1058" as="sourcePoint" />
            <mxPoint x="-673.5" y="1008" as="targetPoint" />
          </mxGeometry>
        </mxCell>
        <mxCell id="ErQjQ0ExapCotJ2YWEid-89" style="edgeStyle=orthogonalEdgeStyle;curved=1;rounded=1;orthogonalLoop=1;jettySize=auto;html=1;exitX=0.5;exitY=0;exitDx=0;exitDy=0;exitPerimeter=0;" edge="1" parent="1" source="ErQjQ0ExapCotJ2YWEid-83" target="ErQjQ0ExapCotJ2YWEid-58">
          <mxGeometry relative="1" as="geometry">
            <Array as="points">
              <mxPoint x="-59" y="800" />
              <mxPoint x="-251" y="800" />
            </Array>
          </mxGeometry>
        </mxCell>
        <mxCell id="ErQjQ0ExapCotJ2YWEid-83" value="&lt;div style=&quot;text-align: center&quot;&gt;&lt;span&gt;&amp;nbsp; &amp;nbsp; &amp;nbsp; &amp;nbsp; &amp;nbsp; &amp;nbsp; &amp;nbsp;函数集：&lt;/span&gt;&lt;/div&gt;a.tm.onTaskCmd():简单调用" style="shape=card;whiteSpace=wrap;html=1;align=left;" vertex="1" parent="1">
          <mxGeometry x="-156" y="860" width="194" height="70" as="geometry" />
        </mxCell>
        <mxCell id="ErQjQ0ExapCotJ2YWEid-84" value="" style="endArrow=none;dashed=1;html=1;dashPattern=1 3;strokeWidth=2;exitX=1;exitY=0.5;exitDx=0;exitDy=0;exitPerimeter=0;entryX=0;entryY=0;entryDx=30;entryDy=0;entryPerimeter=0;" edge="1" parent="1" source="ErQjQ0ExapCotJ2YWEid-64" target="ErQjQ0ExapCotJ2YWEid-83">
          <mxGeometry width="50" height="50" relative="1" as="geometry">
            <mxPoint x="-276" y="860" as="sourcePoint" />
            <mxPoint x="-226" y="810" as="targetPoint" />
          </mxGeometry>
        </mxCell>
        <mxCell id="ErQjQ0ExapCotJ2YWEid-85" value="数据流" style="text;html=1;strokeColor=none;fillColor=none;align=center;verticalAlign=middle;whiteSpace=wrap;rounded=0;" vertex="1" parent="1">
          <mxGeometry x="-570" y="979" width="120" height="20" as="geometry" />
        </mxCell>
        <mxCell id="ErQjQ0ExapCotJ2YWEid-86" value="注册进去的handler" style="text;html=1;strokeColor=none;fillColor=none;align=center;verticalAlign=middle;whiteSpace=wrap;rounded=0;" vertex="1" parent="1">
          <mxGeometry x="-356" y="840" width="120" height="20" as="geometry" />
        </mxCell>
        <mxCell id="ErQjQ0ExapCotJ2YWEid-88" value="3.2.2.2.2.b&lt;br&gt;执行handler" style="text;html=1;strokeColor=none;fillColor=none;align=center;verticalAlign=middle;whiteSpace=wrap;rounded=0;" vertex="1" parent="1">
          <mxGeometry x="-265" y="920" width="120" height="20" as="geometry" />
        </mxCell>
        <mxCell id="ErQjQ0ExapCotJ2YWEid-99" style="edgeStyle=orthogonalEdgeStyle;curved=1;rounded=1;orthogonalLoop=1;jettySize=auto;html=1;exitX=0;exitY=0;exitDx=30;exitDy=0;exitPerimeter=0;entryX=0.5;entryY=1;entryDx=0;entryDy=0;" edge="1" parent="1" source="ErQjQ0ExapCotJ2YWEid-90" target="ErQjQ0ExapCotJ2YWEid-60">
          <mxGeometry relative="1" as="geometry" />
        </mxCell>
        <mxCell id="ErQjQ0ExapCotJ2YWEid-90" value="&lt;div style=&quot;text-align: center&quot;&gt;&lt;span&gt;&amp;nbsp;函数集：&lt;/span&gt;&lt;/div&gt;a.tm.execute()：根据task id获得对应task，后开始执行一个task" style="shape=card;whiteSpace=wrap;html=1;align=left;" vertex="1" parent="1">
          <mxGeometry x="24" y="755" width="194" height="70" as="geometry" />
        </mxCell>
        <mxCell id="ErQjQ0ExapCotJ2YWEid-93" value="3.2.2.2.2.b" style="text;html=1;strokeColor=none;fillColor=none;align=center;verticalAlign=middle;whiteSpace=wrap;rounded=0;" vertex="1" parent="1">
          <mxGeometry x="-326" y="760" width="120" height="20" as="geometry" />
        </mxCell>
        <mxCell id="ErQjQ0ExapCotJ2YWEid-94" value="3.2.2.2.2.b.1" style="text;html=1;strokeColor=none;fillColor=none;align=center;verticalAlign=middle;whiteSpace=wrap;rounded=0;" vertex="1" parent="1">
          <mxGeometry x="-216" y="735" width="120" height="20" as="geometry" />
        </mxCell>
        <mxCell id="ErQjQ0ExapCotJ2YWEid-96" value="3.2.2.2.2.b.1.1&lt;br&gt;&lt;span style=&quot;text-align: left&quot;&gt;t.execute():将从管道接收到cmd信息赋值给task的cmdChan&lt;/span&gt;" style="text;html=1;strokeColor=none;fillColor=none;align=center;verticalAlign=middle;whiteSpace=wrap;rounded=0;" vertex="1" parent="1">
          <mxGeometry x="-40" y="710" width="180" height="20" as="geometry" />
        </mxCell>
        <mxCell id="ErQjQ0ExapCotJ2YWEid-102" value="3.2.3&lt;br&gt;注册contorlmsg handler" style="text;html=1;strokeColor=none;fillColor=none;align=center;verticalAlign=middle;whiteSpace=wrap;rounded=0;" vertex="1" parent="1">
          <mxGeometry x="-620" y="552" width="90" height="20" as="geometry" />
        </mxCell>
        <mxCell id="ErQjQ0ExapCotJ2YWEid-117" style="edgeStyle=none;rounded=1;orthogonalLoop=1;jettySize=auto;html=1;exitX=0.5;exitY=1;exitDx=0;exitDy=0;exitPerimeter=0;" edge="1" parent="1" source="ErQjQ0ExapCotJ2YWEid-105" target="ErQjQ0ExapCotJ2YWEid-115">
          <mxGeometry relative="1" as="geometry" />
        </mxCell>
        <mxCell id="ErQjQ0ExapCotJ2YWEid-125" style="edgeStyle=none;rounded=1;orthogonalLoop=1;jettySize=auto;html=1;exitX=0.5;exitY=1;exitDx=0;exitDy=0;exitPerimeter=0;" edge="1" parent="1" source="ErQjQ0ExapCotJ2YWEid-105" target="ErQjQ0ExapCotJ2YWEid-114">
          <mxGeometry relative="1" as="geometry" />
        </mxCell>
        <mxCell id="ErQjQ0ExapCotJ2YWEid-105" value="&lt;div style=&quot;text-align: center&quot;&gt;&lt;span&gt;函数集：&lt;/span&gt;&lt;/div&gt;a.RegisterControlMsgHandler():注册一个handler" style="shape=card;whiteSpace=wrap;html=1;align=left;" vertex="1" parent="1">
          <mxGeometry x="20" y="410" width="164" height="70" as="geometry" />
        </mxCell>
        <mxCell id="ErQjQ0ExapCotJ2YWEid-127" style="edgeStyle=none;rounded=1;orthogonalLoop=1;jettySize=auto;html=1;exitX=0;exitY=0;exitDx=30;exitDy=0;exitPerimeter=0;" edge="1" parent="1" source="ErQjQ0ExapCotJ2YWEid-111">
          <mxGeometry relative="1" as="geometry">
            <mxPoint x="-350" y="480" as="targetPoint" />
          </mxGeometry>
        </mxCell>
        <mxCell id="ErQjQ0ExapCotJ2YWEid-111" value="&lt;div style=&quot;text-align: center&quot;&gt;&lt;span&gt;函数集：&lt;/span&gt;&lt;/div&gt;a.node.onControlMsg()" style="shape=card;whiteSpace=wrap;html=1;align=left;" vertex="1" parent="1">
          <mxGeometry x="340" y="320" width="194" height="70" as="geometry" />
        </mxCell>
        <mxCell id="ErQjQ0ExapCotJ2YWEid-113" value="注册进去的handler" style="text;html=1;strokeColor=none;fillColor=none;align=center;verticalAlign=middle;whiteSpace=wrap;rounded=0;" vertex="1" parent="1">
          <mxGeometry x="201" y="370" width="120" height="20" as="geometry" />
        </mxCell>
        <mxCell id="ErQjQ0ExapCotJ2YWEid-123" style="edgeStyle=none;rounded=1;orthogonalLoop=1;jettySize=auto;html=1;exitX=0.5;exitY=0;exitDx=0;exitDy=0;exitPerimeter=0;" edge="1" parent="1" source="ErQjQ0ExapCotJ2YWEid-114" target="ErQjQ0ExapCotJ2YWEid-111">
          <mxGeometry relative="1" as="geometry" />
        </mxCell>
        <mxCell id="ErQjQ0ExapCotJ2YWEid-114" value="协程&lt;br&gt;&lt;div&gt;&lt;span&gt;a. ctrlMsg.Recv():管道接收数据&lt;/span&gt;&lt;/div&gt;&lt;div style=&quot;text-align: left&quot;&gt;&lt;span&gt;b.e.controlHandler()&lt;/span&gt;&lt;br&gt;&lt;/div&gt;" style="shape=note;whiteSpace=wrap;html=1;backgroundOutline=1;darkOpacity=0.05;" vertex="1" parent="1">
          <mxGeometry x="201" y="546.5" width="213" height="82.5" as="geometry" />
        </mxCell>
        <mxCell id="ErQjQ0ExapCotJ2YWEid-115" value="" style="strokeWidth=2;html=1;shape=mxgraph.flowchart.direct_data;whiteSpace=wrap;" vertex="1" parent="1">
          <mxGeometry y="580" width="73" height="20" as="geometry" />
        </mxCell>
        <mxCell id="ErQjQ0ExapCotJ2YWEid-116" value="" style="endArrow=none;dashed=1;html=1;dashPattern=1 3;strokeWidth=2;exitX=1;exitY=0;exitDx=0;exitDy=0;exitPerimeter=0;entryX=0;entryY=0;entryDx=0;entryDy=30;entryPerimeter=0;" edge="1" parent="1" source="ErQjQ0ExapCotJ2YWEid-105" target="ErQjQ0ExapCotJ2YWEid-111">
          <mxGeometry width="50" height="50" relative="1" as="geometry">
            <mxPoint x="200" y="400" as="sourcePoint" />
            <mxPoint x="250" y="350" as="targetPoint" />
          </mxGeometry>
        </mxCell>
        <mxCell id="ErQjQ0ExapCotJ2YWEid-118" value="3.2.3.1&lt;br&gt;创建ctrlMsg的etcd管道consumer" style="text;html=1;strokeColor=none;fillColor=none;align=center;verticalAlign=middle;whiteSpace=wrap;rounded=0;" vertex="1" parent="1">
          <mxGeometry x="-60" y="522" width="120" height="20" as="geometry" />
        </mxCell>
        <mxCell id="ErQjQ0ExapCotJ2YWEid-119" value="3.2.3&amp;nbsp;&lt;br&gt;运行函数集" style="text;html=1;strokeColor=none;fillColor=none;align=center;verticalAlign=middle;whiteSpace=wrap;rounded=0;" vertex="1" parent="1">
          <mxGeometry x="-156" y="460" width="70" height="20" as="geometry" />
        </mxCell>
        <mxCell id="ErQjQ0ExapCotJ2YWEid-120" value="" style="endArrow=none;dashed=1;html=1;dashPattern=1 3;strokeWidth=2;exitX=0.842;exitY=0.3;exitDx=0;exitDy=0;exitPerimeter=0;entryX=0;entryY=0.5;entryDx=0;entryDy=0;entryPerimeter=0;" edge="1" parent="1" source="ErQjQ0ExapCotJ2YWEid-115" target="ErQjQ0ExapCotJ2YWEid-114">
          <mxGeometry width="50" height="50" relative="1" as="geometry">
            <mxPoint x="120" y="620" as="sourcePoint" />
            <mxPoint x="170" y="570" as="targetPoint" />
          </mxGeometry>
        </mxCell>
        <mxCell id="ErQjQ0ExapCotJ2YWEid-121" value="数据流" style="text;html=1;strokeColor=none;fillColor=none;align=center;verticalAlign=middle;whiteSpace=wrap;rounded=0;" vertex="1" parent="1">
          <mxGeometry x="73" y="560" width="120" height="20" as="geometry" />
        </mxCell>
        <mxCell id="ErQjQ0ExapCotJ2YWEid-124" value="" style="shape=mxgraph.bpmn.loop;html=1;outlineConnect=0;" vertex="1" parent="1">
          <mxGeometry x="169" y="598" width="24" height="24" as="geometry" />
        </mxCell>
        <mxCell id="ErQjQ0ExapCotJ2YWEid-126" value="3.2.3.2&lt;br&gt;运行下面协程，并循环执行下列过程" style="text;html=1;strokeColor=none;fillColor=none;align=center;verticalAlign=middle;whiteSpace=wrap;rounded=0;" vertex="1" parent="1">
          <mxGeometry x="110" y="500" width="120" height="20" as="geometry" />
        </mxCell>
      </root>
    </mxGraphModel>
  </diagram>
</mxfile>
